<svg width="1111" height="712" viewBox="0 0 1111 712" fill="none" xmlns="http://www.w3.org/2000/svg">
<path d="M111.829 526.568C117.711 542.168 124.387 557.457 131.83 572.376C135.792 580.361 140.547 587.926 146.024 594.958C146.024 594.958 118.926 511.728 128.927 443.339C138.927 374.949 149.25 338.173 169.897 303.979C190.545 269.784 224.738 225.266 237.642 214.943C242.947 211.072 247.912 206.755 252.481 202.038L249.901 243.975C249.901 243.975 211.833 309.787 211.833 374.949C211.833 440.111 217.64 505.277 275.062 575.602C332.484 645.928 362.162 656.895 371.195 658.831C380.227 660.767 391.196 654.96 403.454 658.831C415.713 662.702 429.907 667.219 437.004 673.025C444.101 678.832 478.941 673.025 478.941 673.025L533.136 662.057L495.07 622.056L420.229 621.41L394.42 623.991C394.42 623.991 353.773 594.958 340.224 583.344C326.675 571.73 313.126 555.601 322.482 545.924C331.837 536.246 342.805 531.729 359.58 542.698C376.355 553.666 402.808 556.247 402.808 556.247C402.808 556.247 557.008 553.02 568.621 552.375C580.234 551.731 594.43 544.633 614.429 534.956C634.429 525.279 691.206 523.343 693.787 519.472C696.368 515.601 702.82 487.212 707.981 485.277C713.143 483.342 723.466 485.922 730.563 485.922C737.66 485.922 749.273 491.084 762.822 469.792C776.371 448.501 786.049 405.274 782.823 382.692C779.597 360.111 777.661 306.56 733.789 226.559C689.916 146.557 586.685 93.0051 586.685 93.0051L618.299 131.071L626.687 144.62L617.654 156.234C617.654 156.234 542.167 128.49 484.1 129.136C426.033 129.781 366.031 140.749 345.386 151.072C335.71 155.91 399.578 151.629 404.798 120.003C415.766 53.5483 419.825 43.1151 419.825 43.1151C419.825 43.1151 408.431 49.6781 459.584 38.1648C513.808 25.9608 591.203 43.3267 642.817 65.9081C694.432 88.4896 756.37 126.556 800.888 194.945C845.406 263.335 862.181 313.014 870.568 360.758C878.956 408.502 826.051 529.152 815.728 540.765C805.405 552.379 820.889 569.799 820.889 569.799L845.406 553.669C845.406 553.669 869.137 463.988 871.466 458.827C873.794 453.665 879.601 454.312 883.472 454.956C887.343 455.6 894.44 462.948 894.44 462.948L905.409 491.086C905.409 491.086 913.796 467.859 913.796 456.246C913.796 444.632 893.795 338.822 882.827 303.982C871.859 269.142 837.019 189.138 800.243 151.718C763.467 114.297 708.626 66.5532 651.205 43.9714C593.784 21.3896 520.232 18.1643 484.102 21.39C462.013 23.4505 440.434 29.2428 420.283 38.5204L404.798 120.003L357.83 146.216L293.772 141.393C293.772 141.393 209.897 183.33 168.606 239.461C127.314 295.593 90.5388 387.209 87.3123 449.147C84.0859 511.085 106.668 600.121 117.636 629.154C128.605 658.187 153.121 697.544 153.121 697.544C153.121 697.544 123.443 622.057 119.571 601.411C115.7 580.765 111.829 526.568 111.829 526.568Z" fill="url(#paint0_linear_910_24730)"/>
<path d="M506.613 252.934C507.582 254.311 508.676 255.597 509.881 256.775C509.168 255.217 508.036 253.887 506.613 252.934ZM702.976 336.762C702.167 336.56 701.325 336.358 700.516 336.122L704.425 337.335C703.969 337.081 703.482 336.888 702.976 336.762ZM459.981 38.9156C445.695 37.0624 431.376 35.2093 417.292 33.3898C414.867 39.9517 412.852 46.6582 411.261 53.4708C410.669 59.8436 410.4 66.2422 410.453 72.6422C408.128 107.211 391.618 129.954 362.002 138.377C341.001 144.433 318.456 141.926 299.299 131.403C270.087 116.106 248.22 93.1275 231.576 64.8591C226.253 55.7619 220.626 46.8334 215.1 37.8374C214.527 38.1069 213.955 38.3764 213.348 38.6797C219.008 54.1785 224.669 69.711 230.768 86.4564C179.554 67.6557 133.596 42.1837 97.9155 0C100.827 11.0757 104.462 21.9483 108.799 32.5475C134.607 93.6668 178.947 132.885 245.154 144.274C264.157 147.542 283.969 146.228 303.41 147.239C305.903 147.373 309.508 147.98 310.586 149.665C322.244 167.623 338.787 179.887 356.577 190.871C359.062 192.68 361.426 194.649 363.653 196.768C356.852 198.956 349.509 198.766 342.83 196.228L361.126 206.842C366.709 209.318 372.153 212.096 377.433 215.164C388.35 220.858 398.795 227.934 410.352 231.775C411.496 232.165 412.611 232.638 413.687 233.19C411.509 231.128 409.728 228.684 408.431 225.979C406.51 220.15 413.215 206.168 413.215 206.168C394.516 194.948 377.265 184.84 360.284 174.328C348.222 166.882 348.289 160.75 360.149 152.562C362.789 150.992 365.523 149.585 368.336 148.351C376.086 144.409 384.037 140.77 391.551 136.356C407.117 127.259 417.292 114.152 417.865 95.5871C418.123 84.848 417.469 74.1063 415.911 63.4777C415.203 58.5585 416.281 55.9641 420.358 54.5153C432.185 50.3373 444.078 46.3953 455.938 42.3858C457.353 41.9141 458.735 41.4425 460.15 40.9708C460.082 40.2966 460.049 39.5891 459.981 38.9156Z" fill="#52341C"/>
<path d="M503.143 251.216C499.403 251.552 494.787 256.876 490.946 258.022C487.509 259.066 485.926 265.468 485.252 269.612C483.523 268.776 481.556 268.573 479.693 269.039C475.885 269.477 471 266.445 468.001 267.86C458.399 272.476 451.323 267.287 444.045 263.076C440.965 260.828 438.459 257.884 436.734 254.484C432.889 252.077 429.51 248.995 426.761 245.387L436.7 245.757L445.46 234.908L441.586 213.075C451.255 209.369 455.198 214.76 457.556 219.746C465.44 236.121 481.815 241.445 496.034 248.554C498.354 249.568 500.727 250.457 503.143 251.216Z" fill="#52341C"/>
<path d="M528.042 268.5C526.144 268.245 524.28 267.781 522.483 267.118C519.518 265.501 518.339 275.811 515.441 273.217C512.51 270.656 512.88 266.445 512.207 261.626C512.12 260.875 511.973 260.131 511.769 259.403C512.436 259.674 513.14 259.844 513.858 259.908C518.339 260.077 522.82 259.976 528.413 259.976C527.7 261.272 527.295 262.716 527.231 264.194C527.166 265.673 527.444 267.146 528.042 268.5Z" fill="#52341C"/>
<path d="M756.953 386.291C758.331 382.544 759.236 378.639 759.648 374.667C757.444 374.127 755.414 373.032 753.751 371.487C752.088 369.942 750.847 367.998 750.146 365.84C749.468 366.294 748.672 366.54 747.855 366.547C747.104 366.557 746.366 366.346 745.733 365.941C745.497 366.682 745.261 367.423 744.992 368.164C738.96 369.815 731.784 369.984 731.211 378.71C730.553 379.335 729.764 379.805 728.901 380.085C728.038 380.365 727.124 380.448 726.224 380.328C723.977 379.248 722.168 377.428 721.103 375.172C720.732 374.263 723.259 371.702 724.91 370.523C728.684 367.827 732.761 365.503 736.703 363.043C736.636 362.268 736.534 361.459 736.4 360.651L731.211 357.686C730.685 357.401 730.244 356.982 729.931 356.473C729.796 357.517 729.627 358.528 729.459 359.505C729.324 360.179 725.989 361.19 725.618 360.786C724.119 358.944 722.924 356.874 722.08 354.654C721.428 352.818 720.91 350.938 720.53 349.027C718.812 348.05 717.363 347.308 716.049 346.533C715.245 346.118 714.478 345.633 713.758 345.085C713.253 344.714 712.747 344.276 712.275 343.872C711.669 343.804 711.197 344.074 710.928 344.916L709.984 348.083L705.773 344.916L701.696 349.701H697.383L695.833 361.493C698.066 363.17 700.203 364.97 702.235 366.884C703.22 368.07 704.057 369.371 704.728 370.759C703.145 371.5 701.494 372.915 699.977 372.78C697.961 372.357 696.063 371.494 694.418 370.253C691.781 368.425 688.725 367.291 685.533 366.955C682.342 366.62 679.117 367.094 676.157 368.333C673.529 374.634 671.642 379.081 669.789 383.394C678.785 385.213 682.187 389.122 679.964 395.49C681.008 395.186 682.019 394.512 682.895 394.647C685.321 394.984 687.68 395.658 690.038 396.197C688.786 398.051 687.661 399.987 686.669 401.992C684.103 407.163 682.038 412.567 680.503 418.131C680.132 419.883 683.468 423.185 685.827 424.6C689.229 426.455 692.867 427.837 696.642 428.711C698.327 429.183 701.292 429.385 701.965 428.441C705.267 423.96 707.895 418.973 710.961 414.324C712.275 412.336 714.87 408.899 715.544 409.203C718.138 410.348 722.08 412.673 722.114 414.661C722.35 422.579 728.044 424.331 733.57 426.858C734.756 427.507 735.817 428.363 736.703 429.385C742.464 426.285 747.721 423.488 752.505 420.928C748.597 412.572 744.419 403.643 739.466 393.097H751.831C753.841 391.073 755.564 388.783 756.953 386.291ZM700.55 397.477C698.192 394.041 695.833 392.053 695.901 390.233C696.002 388.616 699.101 385.651 700.415 385.887C703.011 386.869 705.417 388.294 707.525 390.099C705.672 392.053 703.819 394.04 700.55 397.477ZM733.502 392.423C730.538 393.878 727.402 394.954 724.169 395.624C722.99 395.725 721.474 392.491 720.126 390.806C722.417 389.458 724.607 387.201 726.966 387.033C729.088 386.898 731.38 389.054 733.637 390.166C733.57 390.907 733.536 391.648 733.502 392.423Z" fill="#EA644D"/>
<path d="M808.908 290.434C802.102 290.097 795.33 290.266 788.187 290.266C790.377 300.205 788.658 301.587 773.934 301.924C778.483 293.601 782.627 286.02 786.131 279.619C782.56 276.418 778.652 274.632 778.011 272.038C776.697 266.782 773.496 266.209 770.195 268.129C765.949 270.589 762.883 275.171 758.57 277.429C751.36 281.169 753.921 283.325 758.166 287.772C762.513 292.321 766.69 298.116 762.95 307.82C760.862 304.349 759.48 302.463 758.503 300.34C757.796 298.756 758.166 296.533 757.223 295.252C751.529 287.537 736.333 285.246 727.708 290.232C728.921 297.813 730.066 305.158 731.279 312.874C737.411 313.143 743.678 314.019 745.228 320.253C738.793 328.676 733.233 335.987 726.966 344.208C728.23 345.759 729.221 347.514 729.898 349.397C730.305 349.028 730.786 348.747 731.308 348.573C731.83 348.399 732.382 348.336 732.93 348.386L747.418 349.667C747.955 349.713 748.477 349.869 748.952 350.124C749.427 350.379 749.845 350.727 750.181 351.149C750.347 350.745 750.539 350.351 750.754 349.97C760.356 350.037 766.724 345.354 767.87 334.673C767.971 333.764 771.104 332.146 772.048 332.584C772.871 333.046 773.59 333.674 774.159 334.428C774.727 335.182 775.133 336.045 775.35 336.964C775.466 339.28 776.412 341.477 778.014 343.153C779.616 344.829 781.768 345.874 784.076 346.095C786.811 346.686 789.484 347.532 792.061 348.622C799.44 351.452 801.327 350.037 800.013 342.254C798.295 332.18 797.115 322.038 782.931 321.533C778.214 321.398 773.395 317.793 776.765 309.673C783.604 312.806 789.838 315.67 796.408 318.669C796.913 317.827 798.295 314.087 799.137 314.222C810.458 315.805 809.784 307.955 810.289 300.812C810.796 298.611 811.179 296.384 811.435 294.14C811.367 292.793 809.851 290.467 808.908 290.434ZM758.469 317.557C755.808 317.052 753.55 314.356 751.124 312.604C752.944 310.953 754.763 309.269 757.627 306.641C760.457 309.471 762.378 311.358 764.298 313.244C762.344 314.794 760.087 317.861 758.469 317.557Z" fill="#EA644D"/>
<path d="M547.08 285.213C547.08 281.102 535.456 280.024 527.706 278.305C519.957 276.587 528.043 274.835 531.311 271.601C529.943 270.908 528.807 269.831 528.043 268.501C526.145 268.246 524.281 267.782 522.484 267.119C519.519 265.502 518.34 275.812 515.442 273.218C512.511 270.657 512.881 266.446 512.207 261.628C512.121 260.876 511.974 260.132 511.769 259.404C511.522 259.338 511.291 259.224 511.088 259.067C510.886 258.911 510.717 258.716 510.59 258.494C510.401 257.903 510.165 257.328 509.883 256.776C508.678 255.598 507.584 254.312 506.614 252.935C505.536 252.216 504.369 251.638 503.144 251.216C499.404 251.553 494.788 256.877 490.947 258.022C487.51 259.067 485.927 265.469 485.253 269.613C485.881 270.093 486.405 270.696 486.793 271.386C487.181 272.075 487.425 272.836 487.51 273.622C487.948 275.475 490.34 276.991 491.924 278.541C494.181 280.731 496.506 282.787 498.798 284.909L497.18 287.639C493.946 285.954 489.498 285.078 487.78 282.45C482.928 275.071 475.347 274.801 468.204 273.69C467.056 273.477 465.873 273.573 464.774 273.968C463.676 274.362 462.701 275.041 461.951 275.935C461.201 276.83 460.701 277.907 460.504 279.057C460.306 280.208 460.417 281.39 460.825 282.484C463.925 291.008 463.656 302.025 475.482 304.923C475.65 304.957 475.751 305.327 476.392 306.304C474.673 314.458 462.274 321.028 471.068 332.316C474.943 332.181 480.098 331.507 479.525 339.122C495.799 338.919 494.047 319.984 506.244 315.334C506.912 318.289 507.848 321.176 509.04 323.96C510.237 326.756 512.274 329.111 514.869 330.698C519.392 332.435 524.21 333.271 529.054 333.158C534.108 332.989 534.984 328.71 535.119 324.128C535.422 314.593 533.03 311.123 523.057 306.709C527.774 304.283 532.659 301.756 538.016 299.027H538.05C538.623 298.757 539.196 298.454 539.802 298.151L549.202 293.366C547.924 290.83 547.201 288.05 547.08 285.213ZM496.81 301.621C491.789 302.026 486.803 302.43 481.816 302.834C481.446 301.924 481.075 301.015 480.738 300.105C483.771 297.814 486.601 294.276 489.97 293.636C492.126 293.265 495.058 297.14 497.652 299.094C497.382 299.936 497.079 300.779 496.81 301.621ZM514.633 305.462C512.328 303.727 510.226 301.738 508.366 299.532C509.984 298.353 511.837 295.961 513.184 296.23C515.408 296.635 517.295 298.791 520.597 301.082C517.632 303.339 515.206 305.866 514.633 305.462ZM514.802 292.153C512.645 289.29 510.523 286.459 508.366 283.595C510.977 281.545 513.801 279.783 516.79 278.339C517.396 278.137 518.306 278.777 519.451 279.687L519.485 279.721C520.395 280.462 521.372 281.338 522.484 282.079C519.418 286.089 517.093 289.121 514.802 292.153Z" fill="#EA644D"/>
<path d="M854.932 406.271C833.975 399.499 813.321 391.884 792.533 384.539C786.266 382.349 780.066 379.889 773.765 377.767C770.127 376.52 765.544 375.038 764.23 380.226C763.826 381.877 767.465 384.876 769.655 386.83C771.532 388.188 773.583 389.287 775.753 390.098C799.002 400.88 822.25 411.662 845.498 422.444C848.329 424.207 851.292 425.75 854.359 427.06C854.579 424.188 854.556 421.302 854.292 418.434C853.416 414.694 857.291 413.144 862.008 408.023L862.311 407.72C859.807 407.501 857.333 407.015 854.932 406.271ZM865.309 430.395C866.092 431.437 867.255 432.128 868.544 432.316L865.309 430.395ZM873.632 432.889C873.598 432.956 873.564 432.99 873.531 433.057C873.622 433.052 873.713 433.063 873.8 433.091L873.901 432.99C873.814 432.951 873.724 432.917 873.632 432.889ZM930.506 442.558C930.416 443.005 930.292 443.444 930.135 443.872L931.382 443.333C931.013 443.178 930.705 442.906 930.506 442.558ZM930.977 439.863L932.965 432.821C932.13 435.116 931.465 437.47 930.977 439.863Z" fill="#52341C"/>
<path d="M933.405 423.825C937.145 413.144 936.74 411.56 927.677 409.572C923.162 408.595 918.041 410.516 913.189 410.516C910.627 410.163 908.123 409.472 905.743 408.461C907.495 407.046 909.179 405.462 911.066 404.215C912.514 403.43 914.024 402.765 915.581 402.227C915.615 401.452 915.648 400.677 915.648 399.936C912.38 399.262 909.078 398.622 905.642 397.948C906.787 390.502 901.228 387.301 895.702 385.853C890.345 384.471 886.841 388.413 885.089 393.669C883.404 398.622 881.315 403.44 879.26 408.629C881.517 409.269 882.73 409.269 883.404 409.909C884.771 411.341 886.043 412.86 887.211 414.458C884.988 414.727 882.09 416.008 880.608 415.064C878.423 413.208 876.536 411.026 875.014 408.595C872.252 408.292 869.523 408.191 866.861 408.023C865.311 407.955 863.795 407.854 862.312 407.719L862.009 408.023C857.292 413.144 853.417 414.694 854.293 418.434C854.558 421.302 854.58 424.187 854.361 427.059C856.586 427.681 858.965 427.415 860.998 426.318C861.706 425.947 864.098 426.992 864.199 427.632C864.36 428.624 864.74 429.568 865.311 430.395L868.545 432.315L868.579 432.349C870.163 432.686 871.948 432.686 873.532 433.057C873.566 432.989 873.599 432.956 873.633 432.888C873.725 432.917 873.815 432.95 873.903 432.989C878.047 428.508 882.191 424.027 887.211 418.602C889.166 434.404 885.897 437.437 873.903 432.989L873.802 433.09C873.715 433.063 873.623 433.051 873.532 433.057C869.746 438.317 866.367 443.859 863.424 449.634C862.785 451.337 862.535 453.163 862.692 454.976C862.85 456.789 863.411 458.544 864.334 460.112C867.655 463.194 871.516 465.638 875.722 467.322C880.102 469.715 882.663 468.165 884.482 463.549C886.706 457.989 889.637 452.767 893.007 445.894C895.736 449.667 898.667 452.026 899.24 454.856C900.756 462.066 912.852 468.737 918.58 463.886C920.562 462.175 922.817 460.808 925.251 459.843V448.387L927.407 446.399C926.855 446.384 926.31 446.282 925.79 446.096C924.614 445.658 923.494 445.081 922.454 444.377C918.613 441.985 915.008 439.155 909.92 435.516C918.58 432.383 925.049 427.329 932.967 432.821L935.157 426.453L940.682 422.713C938.56 423.117 936.134 423.32 933.405 423.825ZM908.708 424.633C905.343 423.04 902.079 421.239 898.937 419.242C898.027 418.602 897.858 416.008 898.297 414.559C898.6 413.515 900.588 412.032 901.531 412.234C906.046 413.11 910.493 414.525 915.21 415.806C912.885 418.973 911.167 421.331 908.708 424.633Z" fill="#EA644D"/>
<path d="M408.432 18.5169C381.552 12.657 374.497 28.572 371.985 48.8552C354.704 40.3309 340.92 47.2591 327.827 56.4812C322.206 60.4398 317.493 65.6626 312.147 70.0407C295.583 83.6062 278.684 85.239 260.186 74.6492C244.592 65.907 231 53.9993 220.282 39.691C230.002 46.9323 238.228 52.7342 246.087 58.9971C256.32 67.1508 265.567 68.4392 276.319 58.927C289.143 47.5801 303.018 37.3737 316.813 27.1822C332.413 15.6591 349.182 6.37357 369.093 4.85435C376.248 4.14417 383.473 4.99814 390.265 7.35727C397.058 9.71639 403.257 13.5242 408.432 18.5169Z" fill="#52341C"/>
<path d="M657.726 271.474C655.039 278.53 652.791 285.304 649.753 291.703C648.935 292.495 647.929 293.065 646.829 293.358C645.729 293.651 644.572 293.658 643.468 293.378C639.909 291.351 636.527 289.03 633.356 286.437C630.683 284.594 627.911 282.893 624.864 280.922C624.119 273.16 641.933 267.088 627.37 257.847L630.998 252.285L629.938 250.809L622.676 254.323L616.902 234.668C626.7 240.694 626.462 227.167 633.696 227.032C637.629 230.577 641.812 234.613 646.336 238.222C647.057 238.628 647.871 238.842 648.699 238.845C649.527 238.847 650.341 238.637 651.065 238.236C651.645 237.517 652.046 236.672 652.237 235.768C652.427 234.865 652.4 233.929 652.159 233.037C651.236 231.112 648.518 230.095 647.421 228.197C646.022 225.345 644.853 222.386 643.924 219.349L649.898 217.413L663.738 202.095C667.283 208.592 661.54 222.907 675.796 215.566C682.358 222.388 664.382 226.371 676.093 232.857L660.878 239.547C663.972 241.17 666.31 243.452 668.533 243.345C673.272 243.117 679.444 244.25 680.407 236.768C681.028 231.941 681.355 226.907 688.291 225.94L690.748 232.941C691.6 233.034 692.46 233.024 693.309 232.911C696.683 231.943 700.029 230.874 703.385 229.841C703.167 234.803 703.217 239.797 702.638 244.717C701.944 248.458 701.011 252.15 699.845 255.772C691.9 249.311 688.585 261.962 681.133 261.815C680.772 261.808 679.847 263.728 680.12 264.317C680.362 264.84 680.716 265.303 681.158 265.673C681.599 266.043 682.117 266.312 682.674 266.459C684.964 266.496 687.253 266.363 689.523 266.061L693.318 259.608L695.332 260.174C696.087 267.811 688.225 275.679 695.446 281.491L684.144 290.083L680.617 288.302L674.906 295.741L672.03 287.16L666.963 286.071L668.873 281.017L657.726 271.474ZM682.064 251.979L682.165 250.14C677.657 249.774 673.123 249.899 668.642 250.514C667.377 250.8 666.871 255.55 666.667 258.302C666.634 258.751 670.606 260.481 671.676 259.846C675.304 257.449 678.773 254.821 682.064 251.979ZM643.148 250.729C648.384 249.704 644.966 262.688 652.621 256.202C654.483 254.624 655.576 248.705 654.392 247.599C650.665 244.119 646.555 245.846 643.148 250.729Z" fill="#EA644D"/>
<path d="M874.214 554.224L884.721 539.396C885.082 540.589 885.722 542.7 886.584 545.547H900.176C897.316 548.904 895.649 550.861 893.561 553.313L897.801 554.098C897.397 555.104 896.373 556.352 896.64 557.187C900.332 568.759 892.061 567.801 885.13 568.446C882.639 568.994 880.194 569.728 877.813 570.641L890.274 578.27L882.016 580.653L891.379 591.738L887.862 598.955C880.046 597.431 876.254 599.526 875.477 606.143C863.74 603.243 857.735 595.053 854.423 583.71C852.679 589.669 850.935 595.629 848.87 602.687L846.374 599.416L835.242 609.697L824.632 591.494L820.542 594.748C820.542 593.66 820.258 592.769 820.584 592.347C825.292 586.249 828.735 579.901 824.837 572.045C823.83 570.016 822.988 567.398 821.272 566.324C816.818 563.536 815.224 561.178 818.486 555.938C820.236 553.128 819.28 548.633 819.423 546.626L834.826 543.99L836.366 553.626L838.345 553.77L842.175 545.854L847.417 557.296L850.352 556.487C849.798 553.651 849.425 550.765 848.648 547.991C847.084 543.962 845.85 539.813 844.956 535.585C845.035 534.241 845.38 532.925 845.972 531.715C846.565 530.506 847.392 529.426 848.407 528.54C849.304 527.692 852.285 529.05 854.977 529.525L859.494 520.298C868.69 527.747 869.33 530.408 865.799 542.738C867.576 540.399 869.353 538.061 872.093 534.457C872.917 542.034 873.592 548.233 874.256 554.403C871.353 552.339 868.302 550.491 865.129 548.873C864.739 548.696 862.732 552.071 861.475 553.799L862.684 555.852L874.214 554.224ZM840.384 564.672V574.433C843.75 572.708 846.77 572.039 848.271 570.158C849.785 567.683 850.74 564.907 851.071 562.025C851.151 561.657 847.924 560.09 847.821 560.232C846.417 562.303 845.123 564.446 843.946 566.654L840.384 564.672ZM876.449 561.901L860.596 567.377C867.896 573.435 873.163 571.927 876.449 561.901Z" fill="#EA644D"/>
<path d="M784.843 462.349C791.374 457.735 799.336 455.603 807.299 456.337C813.532 456.578 815.132 459.8 812.765 464.918C810.941 468.222 808.79 471.337 806.347 474.214C804.766 476.354 802.865 478.27 801.414 480.487C800.704 481.911 800.17 483.415 799.825 484.968C798.061 484.186 796.264 483.47 794.54 482.607C790.584 480.396 786.513 478.399 782.343 476.624C781.453 476.292 778.976 478.57 778.247 480.123C777.853 480.963 779.277 483.543 780.451 484.071C784.406 485.85 788.695 486.875 792.711 488.539C797.383 490.474 803.502 491.42 801.673 499.023C801.623 499.233 801.824 499.5 801.899 499.743C806.113 513.426 806.113 513.426 793.109 518.093C789.967 519.221 780.801 512.277 778.674 507.486C777.289 504.364 775.409 501.462 773.537 498.076C767.699 505.496 762.748 512.106 757.331 518.31C756.427 518.684 755.444 518.826 754.471 518.725C753.497 518.624 752.565 518.282 751.756 517.73C748.966 512.959 746.005 509.605 740.174 513.159C737.665 502.726 746.321 488.425 755.926 485.926C767.062 483.029 767.062 483.029 768.187 468.693L747.726 489.253C746.239 486.263 745.624 483.258 744.496 483.05C737.141 481.7 735.062 477.166 732.852 470.345C730.378 462.704 730.88 458.234 739.035 456.238C741.896 455.538 744.704 454.619 748.503 453.519L764.318 465.505L765.971 464.186C763.631 460.507 761.394 456.756 758.923 453.168C755.828 448.674 755.443 445.133 760.81 441.759C764.643 438.845 768.232 435.623 771.54 432.125L792.448 451.754L775.048 464.042L776.214 465.802C779.168 464.585 782.117 463.371 785.063 462.16C784.305 462.822 783.655 463.597 783.135 464.459C782.299 466.518 781.725 468.684 781.046 470.807C783.336 470.653 785.616 470.375 787.875 469.972C789.548 469.448 791.172 468.778 792.727 467.968L791.25 465.291L784.843 462.349Z" fill="#EA644D"/>
<path d="M409.453 34.2861C405.081 36.5342 402.541 38.9489 400.858 38.453C398.144 37.0933 395.697 35.2558 393.635 33.0284C395.763 31.3775 397.961 28.3294 400.001 28.4312C402.523 28.5562 404.915 31.2986 409.453 34.2861Z" fill="#52341C"/>
<path d="M341.853 204.282C343.885 204.017 345.936 203.916 347.985 203.978C352.502 204.129 356.955 205.1 361.125 206.842L342.83 196.229C336.698 193.689 330.378 191.627 323.928 190.063C321.916 188.141 319.753 186.383 317.459 184.807C315.921 183.699 314.795 182.111 314.258 180.292C313.977 176.874 313.932 173.44 314.123 170.016C313.551 169.746 313.012 169.477 312.439 169.207C310.518 172.374 308.564 175.541 306.643 178.742C303.274 173.351 300.141 175.171 297.007 179.922C294.076 184.302 290.842 188.513 288.651 191.546C292.661 197.139 296.805 203.001 300.949 208.864C300.444 209.336 299.905 209.774 299.366 210.245C295.022 207.798 290.805 205.133 286.731 202.26C283.811 200.177 280.388 198.914 276.816 198.6C273.243 198.286 269.652 198.933 266.414 200.474C260.08 203.035 265.302 210.38 265.201 215.67C264.999 223.419 269.143 224.7 275.174 224.936C277.228 225.147 279.265 225.496 281.273 225.98C276.017 234.976 271.165 243.264 265.774 252.429C276.892 253.844 285.114 257.416 288.146 268.433C288.752 268.13 289.393 267.793 290.033 267.49C292.054 261.223 294.11 254.956 296.401 247.948C297.681 250.542 298.625 252.429 300.174 255.495C301.825 250.172 303.106 246.061 304.352 241.95C305.161 241.647 305.936 241.344 306.711 241.074C308.497 253.507 314.831 261.391 324.804 263.413C327.934 260.972 331.208 258.722 334.609 256.674C342.156 252.8 342.965 248.79 337.237 242.186C335.889 240.636 334.002 239.053 333.699 237.233C332.886 233.426 332.863 229.493 333.632 225.677C333.901 224.598 339.124 225.205 341.819 224.295C344.166 223.652 346.209 222.195 347.581 220.185C350.377 214.254 348.356 208.931 341.853 204.282ZM291.515 229.922L289.19 228.911C289.898 223.285 290.606 217.658 291.313 211.997C292.122 211.997 292.931 212.031 293.739 212.031C294.885 216.209 296.03 220.421 297.311 225.104C295.525 226.586 293.503 228.237 291.515 229.922ZM306.172 209.302C309.002 206.269 311.731 203.338 316.28 198.453C317.762 204.416 318.84 208.763 319.919 213.143C319.177 213.48 318.402 213.817 317.661 214.187C314.022 212.638 310.384 211.088 306.172 209.302ZM323.894 234.909C319.144 231.708 314.326 228.574 309.71 225.171C309.204 224.834 309.406 222.341 310.013 221.937C311.125 221.162 313.348 220.488 314.09 221.094C318.369 224.43 322.344 228.17 326.421 231.775L323.894 234.909ZM332.756 200.609H320.491C320.896 198.554 321.3 196.532 321.671 194.477C325.478 195.218 329.285 195.926 333.093 196.667C332.992 197.981 332.857 199.295 332.756 200.609Z" fill="#EA644D"/>
<path d="M361.127 206.842L347.986 203.978C352.504 204.128 356.956 205.099 361.127 206.842Z" fill="white"/>
<path d="M499.437 162.434C496.707 161.356 493.945 160.312 490.643 159.031C491.339 156.846 491.891 154.618 492.294 152.36C492.449 150.184 492.471 148.002 492.361 145.823C488.664 145.956 484.963 145.73 481.31 145.15C472.381 142.757 467.293 146.565 467.697 155.898C467.765 157.481 467.9 159.065 468.001 161.019C465.811 160.446 464.295 160.109 462.846 159.638C460.184 158.795 457.556 157.818 454.894 156.909C456.368 153.99 458.302 151.328 460.622 149.024C465.204 145.857 467.361 143.027 462.576 138.95C465.07 136.929 467.125 135.277 469.214 133.593C456.949 138.411 460.858 123.653 453.311 122.44C449.436 125.911 445.056 131.74 438.081 127.73C437.003 133.694 436.161 138.546 435.318 143.431C435.925 149.361 446.471 150.507 443.236 161.659C436.026 154.685 429.692 148.553 422.583 141.713C421.909 145.284 421.471 147.576 420.898 150.574C418.981 149.124 416.991 147.775 414.934 146.531C413.25 145.621 410.824 144.172 409.644 144.745C408.927 145.402 408.369 146.214 408.013 147.119C407.657 148.024 407.512 148.998 407.589 149.968C408.095 156.437 409.072 162.906 410.015 170.554C412.98 168.196 414.799 166.713 416.855 165.062C418.876 167.488 420.763 169.745 422.751 172.104C420.19 173.553 418.135 174.732 414.564 176.787C419.449 178.405 422.616 179.449 425.548 180.426C422.01 189.22 408.027 191.579 413.216 206.168C413.216 206.168 406.511 220.15 408.431 225.979C409.728 228.684 411.51 231.127 413.688 233.19C418.757 236.287 423.146 240.379 426.592 245.218L426.761 245.386L436.7 245.757L445.46 234.908L441.585 213.075C444.314 204.214 446.505 197.037 449.335 187.906C456.815 196.228 458.028 209.335 469.685 214.119C470.258 210.278 470.73 207.111 471.235 203.843C474.032 203.472 476.424 203.169 479.052 202.832V197.34C481.647 198.89 483.702 200.103 485.959 201.484C486.97 193.398 487.206 193.061 478.985 187.569C472.246 183.054 476.323 177.899 477.469 173.216C478.041 170.891 480.939 169.139 482.758 167.117C483.465 167.589 484.173 168.061 484.881 168.533V181.269C485.117 171.329 489.868 165.399 499.437 162.434ZM435.386 174.058C432.623 173.688 430.399 169.375 427.94 166.814C428.479 165.702 429.052 164.59 429.591 163.479L445.056 166.41C445.191 167.488 445.325 168.6 445.46 169.712C442.057 171.296 438.486 174.462 435.386 174.058ZM452.906 173.553C459.241 164.624 461.936 164.153 471.303 170.352C466.114 177.799 459.578 174.597 452.906 173.553Z" fill="#EA644D"/>
<path d="M491.922 278.54L484.813 273.217C484.813 273.217 484.914 271.701 485.251 269.612C485.879 270.092 486.403 270.695 486.791 271.385C487.179 272.074 487.423 272.835 487.508 273.621C487.946 275.474 490.339 276.99 491.922 278.54Z" fill="#EA644D"/>
<path d="M506.612 252.934C505.533 252.215 504.367 251.637 503.141 251.215C503.824 251.13 504.517 251.248 505.134 251.554C505.751 251.859 506.265 252.339 506.612 252.934Z" fill="#EA644D"/>
<path d="M511.767 259.404C511.52 259.338 511.289 259.223 511.086 259.067C510.884 258.911 510.714 258.716 510.588 258.494C510.399 257.903 510.162 257.328 509.88 256.775C510.746 257.454 511.401 258.366 511.767 259.404Z" fill="#EA644D"/>
<path d="M519.45 279.686L516.789 278.338C517.395 278.136 518.305 278.777 519.45 279.686Z" fill="#EA644D"/>
<path d="M531.311 271.601C529.942 270.909 528.806 269.831 528.043 268.501C530.907 269.04 533.232 269.714 531.311 271.601Z" fill="#EA644D"/>
<path d="M539.801 298.15L538.049 299.06V299.026C538.622 298.757 539.195 298.453 539.801 298.15Z" fill="#EA644D"/>
<path d="M579.088 307.113C578.683 307.618 578.279 308.124 577.875 308.595L576.864 308.191L577.639 306.473C578.144 306.674 578.616 306.877 579.088 307.113Z" fill="#EA644D"/>
<path d="M751.832 362.2C751.905 362.898 751.787 363.602 751.49 364.237C751.193 364.872 750.729 365.414 750.147 365.806V365.839C749.469 366.293 748.672 366.539 747.856 366.547C747.104 366.556 746.366 366.345 745.733 365.94L736.333 359.977C736.372 360.199 736.394 360.424 736.4 360.65L731.212 357.685C730.686 357.4 730.244 356.982 729.931 356.472C730.245 354.227 730.257 351.949 729.965 349.7C729.959 349.596 729.936 349.494 729.897 349.397C730.305 349.028 730.786 348.747 731.308 348.573C731.83 348.399 732.382 348.335 732.93 348.386L747.418 349.666C747.955 349.713 748.477 349.869 748.952 350.124C749.427 350.378 749.845 350.727 750.181 351.149C750.676 351.768 750.98 352.517 751.057 353.305L751.832 362.2Z" fill="#52341C"/>
<path d="M729.965 349.701C730.256 351.95 730.245 354.227 729.931 356.473C729.686 356.175 729.503 355.831 729.392 355.462L728.785 353.609C728.538 352.875 728.511 352.085 728.709 351.336C728.907 350.588 729.32 349.913 729.897 349.397C729.936 349.494 729.958 349.597 729.965 349.701Z" fill="#EA644D"/>
<path d="M745.735 365.941L736.402 360.651C736.396 360.425 736.374 360.2 736.334 359.977L745.735 365.941Z" fill="#EA644D"/>
<path d="M591.857 324.498L593.44 315.064L577.874 308.595C578.278 308.123 578.683 307.618 579.087 307.113C578.615 306.877 578.144 306.675 577.638 306.472L580.3 305.495L584.478 302.833L594.148 312.099L591.857 324.498Z" fill="#52341C"/>
<path d="M625.956 352.934L625.012 356.135L623.732 352.058L620.868 346.667L625.956 352.934Z" fill="#52341C"/>
<path d="M715.949 346.432C715.478 345.927 713.625 343.973 712.277 343.871C712.142 343.77 712.041 343.636 711.906 343.535C709.722 341.121 707.203 339.033 704.426 337.335L710.289 339.121L715.949 346.432Z" fill="#52341C"/>
<path d="M712.274 343.872C711.668 343.804 711.196 344.074 710.926 344.916L709.983 348.083L705.772 344.916L701.695 349.701H697.382L695.832 361.493C694.655 360.272 693.246 359.299 691.688 358.629C675.751 354.856 659.814 351.25 646.034 348.083C640.845 350.947 635.858 353.744 630.905 356.473C629.254 357.383 622.516 353.864 620.865 354.773L618.36 351.404L625.009 356.138L625.953 352.937L620.865 346.67L616.889 339.123L614.362 338.617L605.063 336.731L602.57 336.225L597.752 330.16L591.855 324.5L594.146 312.101L584.476 302.835L580.299 305.497L577.637 306.474C576.289 305.834 574.908 305.228 573.526 304.588C564.934 300.612 556.309 296.636 549.2 293.368C547.922 290.831 547.199 288.052 547.077 285.214C547.077 281.103 535.453 280.025 527.704 278.307C519.954 276.589 528.04 274.836 531.309 271.602C532.62 272.311 533.983 272.919 535.386 273.421C548.021 278.341 560.992 282.384 573.627 287.337C574.381 287.801 575.231 288.09 576.111 288.182C576.992 288.275 577.882 288.168 578.717 287.871C579.551 287.573 580.308 287.092 580.932 286.463C581.555 285.834 582.03 285.074 582.32 284.237C584.729 279.503 587.918 275.209 591.754 271.535C591.383 276.083 591.181 280.665 590.609 285.214C590.126 287.306 590.447 289.502 591.508 291.368C592.569 293.234 594.292 294.633 596.336 295.288C630.097 311.394 664.127 326.724 700.515 336.124L704.424 337.337C707.201 339.035 709.72 341.123 711.904 343.537C712.038 343.636 712.139 343.77 712.274 343.872Z" fill="#52341C"/>
<path d="M577.638 306.472L574.741 307.516L573.528 304.585C574.909 305.225 576.291 305.832 577.638 306.472Z" fill="#52341C"/>
<path d="M620.868 346.667L614.365 338.614L616.892 339.12L620.868 346.667Z" fill="#52341C"/>
<path d="M616.676 352.776L617.99 348.466L616.676 352.776Z" fill="#52341C"/>
<path d="M636.323 346.093C636.323 342.035 624.848 340.972 617.198 339.274C609.548 337.577 617.53 335.848 620.757 332.655C619.406 331.972 618.284 330.908 617.53 329.595C615.657 329.343 613.816 328.886 612.043 328.231C609.116 326.635 607.951 336.813 605.091 334.252C602.197 331.725 602.564 327.566 601.898 322.81C601.812 322.068 601.668 321.334 601.466 320.615C601.222 320.55 600.993 320.437 600.793 320.283C600.593 320.129 600.426 319.936 600.301 319.717C600.115 319.133 599.881 318.565 599.603 318.02C598.414 316.857 597.334 315.588 596.376 314.228C595.312 313.519 594.16 312.949 592.951 312.532C589.258 312.865 584.702 318.12 580.91 319.251C577.517 320.282 575.954 326.601 575.289 330.693C575.909 331.167 576.426 331.763 576.809 332.443C577.192 333.123 577.433 333.874 577.517 334.651C577.95 336.48 580.311 337.976 581.874 339.507C584.103 341.669 586.398 343.698 588.66 345.793L587.063 348.489C583.87 346.826 579.48 345.962 577.783 343.367C572.994 336.083 565.51 335.817 558.458 334.719C557.325 334.509 556.157 334.604 555.072 334.994C553.988 335.383 553.026 336.053 552.285 336.936C551.545 337.819 551.051 338.883 550.856 340.018C550.661 341.154 550.771 342.321 551.174 343.401C554.234 351.816 553.968 362.692 565.643 365.553C565.809 365.586 565.909 365.952 566.541 366.917C564.845 374.966 552.605 381.451 561.285 392.594C565.11 392.461 570.199 391.796 569.634 399.313C585.699 399.113 583.969 380.421 596.01 375.829C596.669 378.745 597.593 381.596 598.771 384.344C599.952 387.105 601.963 389.43 604.525 390.997C608.989 392.711 613.746 393.536 618.528 393.425C623.517 393.258 624.382 389.034 624.515 384.511C624.814 375.097 622.453 371.672 612.607 367.314C617.264 364.919 622.087 362.425 627.375 359.731H627.409C627.974 359.465 628.54 359.165 629.138 358.866L638.419 354.143C637.157 351.638 636.443 348.895 636.323 346.093ZM586.697 362.291C581.741 362.69 576.819 363.089 571.896 363.488C571.53 362.591 571.164 361.692 570.831 360.793C573.825 358.532 576.619 355.039 579.945 354.407C582.074 354.041 584.968 357.866 587.529 359.795C587.263 360.628 586.963 361.459 586.697 362.291ZM604.292 366.083C602.017 364.37 599.942 362.406 598.106 360.229C599.703 359.065 601.532 356.703 602.863 356.97C605.058 357.368 606.921 359.497 610.18 361.759C607.253 363.987 604.858 366.482 604.292 366.083ZM604.459 352.943C602.33 350.116 600.235 347.322 598.106 344.495C600.683 342.471 603.471 340.732 606.421 339.306C607.02 339.107 607.918 339.739 609.05 340.636L609.083 340.67C609.981 341.402 610.946 342.267 612.044 342.999C609.016 346.958 606.721 349.95 604.459 352.943Z" fill="#EA644D"/>
<path d="M1111 461.562C1109.62 462.809 1108.2 465.235 1106.92 465.167C1097.56 464.729 1087.82 465.134 1078.96 462.674C1067.2 459.439 1056.21 456.138 1043.71 459.473C1030.81 463.473 1016.97 463.213 1004.23 458.732C1011.87 465.942 1019.55 473.186 1027.24 480.464C1009.58 491.785 977.643 493.368 964.334 465.74C961.975 460.888 959.347 458.631 953.72 459.507C949.65 460.04 945.521 459.915 941.49 459.136C936.819 458.085 931.971 458.096 927.305 459.17L926.901 459.305L925.621 459.709L925.25 459.844V448.388L927.406 446.4C928.687 446.367 929.529 445.524 930.135 443.873L931.382 443.334C931.013 443.179 930.705 442.907 930.506 442.559C930.675 441.784 930.843 440.908 930.978 439.864L932.966 432.822L935.156 426.454L940.681 422.714L940.816 422.68C942.05 422.468 943.251 422.094 944.388 421.569C951.463 418.199 958.236 414.19 966.524 409.675C965.85 425.949 965.783 440.302 957.359 454.722C962.178 454.722 966.996 454.857 971.78 454.689C979.193 454.386 986.605 453.442 994.017 453.577C1000.05 453.712 1002.91 451.758 1004.97 445.726C1011.94 424.972 1026.26 411.865 1049.31 407.047C1046.61 420.524 1044.09 433.361 1041.39 446.872C1052.54 447.681 1064.54 448.489 1076.5 449.534C1077.39 449.539 1078.27 449.721 1079.09 450.068C1079.91 450.415 1080.66 450.92 1081.28 451.555C1085.86 459.473 1093.38 457.856 1100.42 457.957C1102.45 457.719 1104.5 457.753 1106.52 458.058C1108.2 458.97 1109.71 460.154 1111 461.562Z" fill="#52341C"/>
<path d="M930.977 439.864C930.842 440.908 930.674 441.784 930.505 442.559C929.831 441.38 930.977 439.864 930.977 439.864Z" fill="#EA644D"/>
<path d="M944.387 421.567C943.251 422.093 942.05 422.467 940.816 422.679L944.387 421.567Z" fill="#EA644D"/>
<path d="M864.198 427.633C864.359 428.625 864.738 429.569 865.31 430.396C865.31 430.396 858.941 427.094 856.01 430.396C854.528 432.013 854.326 429.992 854.359 427.061C856.584 427.682 858.964 427.417 860.997 426.319C861.704 425.949 864.097 426.992 864.198 427.633Z" fill="#EA644D"/>
<path d="M866.86 408.023C865.31 407.956 863.794 407.855 862.312 407.72C866.759 403.172 866.86 408.023 866.86 408.023Z" fill="#EA644D"/>
<path d="M930.135 443.874C929.529 445.524 928.687 446.367 927.406 446.401L930.102 443.874H930.135Z" fill="#52341C"/>
<path d="M284.991 712C276.724 711.467 270.857 710.533 267.391 709.2C264.191 707.867 261.257 706 258.591 703.6C256.191 701.2 252.057 698.133 246.191 694.4V693.6C246.191 692.267 246.857 691.2 248.191 690.4C249.791 689.867 251.124 689.6 252.191 689.6C253.524 691.467 255.257 692.8 257.391 693.6C259.791 694.4 262.057 694.933 264.191 695.2C268.191 696.8 271.657 697.6 274.591 697.6C276.724 697.6 278.724 697.333 280.591 696.8C282.457 696.533 284.591 696.267 286.991 696C287.524 697.067 288.457 697.333 289.791 696.8C291.124 696.533 291.524 696 290.991 695.2C294.457 692.8 297.924 690.4 301.391 688C305.124 685.867 308.457 683.467 311.391 680.8C310.857 680.8 310.724 680.4 310.991 679.6C313.924 677.733 316.457 674.4 318.591 669.6C320.991 665.067 322.991 660.133 324.591 654.8C326.457 649.467 327.924 645.2 328.991 642C329.524 642.533 330.057 642.8 330.591 642.8C331.391 642.8 331.791 642.133 331.791 640.8C331.791 639.467 331.257 638.267 330.191 637.2C330.991 634.267 331.791 631.467 332.591 628.8C333.657 625.867 334.991 623.2 336.591 620.8C336.324 620.8 336.191 620.8 336.191 620.8C335.924 620.8 336.057 619.467 336.591 616.8C337.391 614.133 337.657 612 337.391 610.4L339.791 609.2L340.591 595.6L343.791 590.4V580C344.857 580.267 345.791 579.333 346.591 577.2C347.391 575.067 346.724 574.667 344.591 576L346.991 563.2L349.391 562.4H346.991L350.991 552.8H348.591C349.124 548.267 349.791 543.733 350.591 539.2C351.391 534.4 351.791 529.6 351.791 524.8C353.124 526.4 353.924 525.867 354.191 523.2C354.457 520.533 354.457 517.333 354.191 513.6C354.191 509.867 354.191 507.467 354.191 506.4H356.591L356.991 504.8C356.991 502.4 356.324 500.533 354.991 499.2L357.391 469.2H358.191C358.991 469.2 359.391 468.8 359.391 468C359.391 466.667 358.857 465.067 357.791 463.2C356.724 461.333 357.657 461.467 360.591 463.6L358.191 454C358.724 454.267 359.657 454.4 360.991 454.4C362.324 454.133 362.724 453.467 362.191 452.4L359.791 450.8L361.391 450L358.991 444C358.991 443.733 358.991 443.6 358.991 443.6V444C359.257 444 359.657 444 360.191 444C360.991 444 361.391 443.6 361.391 442.8C361.391 441.2 360.591 439.333 358.991 437.2V436C358.991 434.133 359.791 433.067 361.391 432.8C362.991 432.533 363.657 431.867 363.391 430.8L359.791 431.6L358.191 428.4V430L350.191 446C349.391 445.2 348.991 444.133 348.991 442.8C348.991 439.867 349.924 438 351.791 437.2V426C347.257 424.933 342.057 423.467 336.191 421.6C330.324 419.733 325.124 419.067 320.591 419.6L319.391 417.2H318.991C318.724 417.2 318.191 417.333 317.391 417.6C316.591 417.867 315.924 417.867 315.391 417.6L314.991 417.2C313.391 415.6 311.257 414.8 308.591 414.8C306.191 414.533 303.924 414.4 301.791 414.4L301.391 412.4L291.391 411.2L290.991 409.2H279.391L276.191 406.8H269.791V406.4C269.791 405.067 268.991 404.267 267.391 404C265.791 403.467 264.724 403.867 264.191 405.2L256.991 402.8L255.391 399.6L247.391 400.4C247.124 400.133 246.857 399.333 246.591 398C246.591 396.667 246.457 396 246.191 396C245.657 396 245.257 397.2 244.991 399.6L239.391 397.6V399.2C239.391 401.6 240.457 402.933 242.591 403.2C244.724 403.467 246.324 404.8 247.391 407.2L240.991 408C239.124 405.867 236.057 404.533 231.791 404C227.791 403.467 224.591 403.067 222.191 402.8C222.457 402.533 222.591 402.133 222.591 401.6C222.591 400.267 221.657 399.467 219.791 399.2C218.191 398.933 217.524 399.467 217.791 400.8L208.591 396.8V393.6L202.991 395.6C202.191 395.067 201.257 394.267 200.191 393.2C199.124 392.133 198.457 392.133 198.191 393.2L187.391 384.8L184.591 386.4L174.991 380L177.391 370.4C178.991 370.4 179.924 370.133 180.191 369.6C180.457 368.8 179.791 368 178.191 367.2L188.591 354.4L190.591 356C192.724 354.933 193.791 354.667 193.791 355.2C193.791 355.2 193.524 355.2 192.991 355.2C192.724 355.2 192.324 355.333 191.791 355.6L198.191 356.8L199.791 358.4C200.324 358.133 200.591 357.6 200.591 356.8C200.857 356 201.124 355.6 201.391 355.6C201.657 355.333 202.591 355.733 204.191 356.8C205.791 357.867 205.124 358.4 202.191 358.4L222.991 363.2L220.991 364L237.791 367.2L240.991 372.4L248.191 370.4L264.191 379.6C264.724 378 265.791 377.333 267.391 377.6C268.991 377.6 269.524 378.267 268.991 379.6H275.391C275.657 381.2 276.591 382.133 278.191 382.4C280.057 382.667 281.524 382.533 282.591 382C284.724 383.867 287.391 385.2 290.591 386C293.791 386.8 296.724 387.2 299.391 387.2L300.591 390.4C301.924 389.6 302.991 389.2 303.791 389.2C306.191 389.2 308.457 390.133 310.591 392C312.991 393.867 315.257 395.333 317.391 396.4L318.191 393.2C324.857 394.533 331.124 396.667 336.991 399.6C343.124 402.267 349.657 403.733 356.591 404C358.457 395.2 359.657 387.733 360.191 381.6C360.991 375.467 362.991 370.8 366.191 367.6C369.657 364.4 376.057 362.933 385.391 363.2V366.4L391.791 364L395.791 367.2L396.991 386L394.591 387.2L392.591 400.8C392.857 400.533 393.124 400.4 393.391 400.4C394.191 400.4 394.724 400.933 394.991 402C395.524 402.8 395.524 403.467 394.991 404C393.924 404.8 392.991 405.2 392.191 405.2H391.791C391.524 405.2 391.391 405.333 391.391 405.6C391.391 405.867 391.524 406.667 391.791 408C392.324 409.333 392.991 411.467 393.791 414.4L403.391 420.4L405.391 417.2L422.191 420.8V422.4C422.191 424.8 422.591 426 423.391 426C423.657 426 423.657 424.667 423.391 422L430.591 426C431.391 426 431.524 425.6 430.991 424.8C430.457 424 430.057 423.6 429.791 423.6C433.257 423.867 436.724 424.533 440.191 425.6C443.657 426.667 447.124 427.867 450.591 429.2L448.991 430.8L461.791 430L465.791 433.2L486.191 434.8C484.591 435.867 484.857 436.667 486.991 437.2C489.124 437.467 491.657 437.733 494.591 438C497.524 438 499.257 438 499.791 438L502.991 436.4L520.591 440.4V438L529.391 439.6C531.257 438.267 533.391 437.333 535.791 436.8C538.457 436.267 540.857 435.867 542.991 435.6V435.2C542.991 434.4 543.391 433.733 544.191 433.2C544.991 432.667 545.657 432.667 546.191 433.2L552.991 428.4C552.991 422.8 552.324 417.467 550.991 412.4C549.924 407.067 549.124 401.733 548.591 396.4L542.991 392.4L546.191 391.2L554.991 400.4L553.391 400.8C556.591 400.8 558.857 402.533 560.191 406C561.791 409.2 562.857 412.8 563.391 416.8C564.191 420.8 564.857 423.867 565.391 426L563.391 427.6L561.391 438.8H557.391C557.924 440.933 556.991 442.933 554.591 444.8C552.457 446.667 549.791 448.267 546.591 449.6C543.657 450.667 541.391 451.467 539.791 452C540.057 451.733 540.191 451.6 540.191 451.6C540.191 451.333 540.191 451.2 540.191 451.2C540.191 449.333 539.391 448.4 537.791 448.4C537.524 448.4 536.991 448.533 536.191 448.8C535.657 449.067 534.991 449.467 534.191 450L529.391 453.2C527.791 452.667 526.057 451.867 524.191 450.8C522.591 449.733 521.124 449.733 519.791 450.8C518.457 451.867 516.324 452.667 513.391 453.2C510.724 453.467 507.524 453.6 503.791 453.6C498.991 453.6 494.057 453.467 488.991 453.2C484.191 452.667 480.457 452.4 477.791 452.4L476.991 449.2L467.391 448.4L465.791 450L452.191 448.4V445.2H451.791C451.257 445.2 450.457 445.467 449.391 446C448.324 446.533 448.191 447.067 448.991 447.6L440.991 443.6L438.591 445.2L424.191 442C424.457 441.467 424.591 440.933 424.591 440.4C424.591 439.867 424.324 439.6 423.791 439.6C422.991 439.6 421.924 439.867 420.591 440.4C419.524 440.667 418.324 440.8 416.991 440.8C415.124 440.8 414.057 439.867 413.791 438H406.591C406.591 438.533 406.457 438.8 406.191 438.8C405.657 438.8 404.857 438.267 403.791 437.2C402.991 436.133 402.457 435.6 402.191 435.6C401.657 435.333 400.857 435.2 399.791 435.2C398.724 435.2 397.524 435.2 396.191 435.2C394.857 435.2 393.524 435.2 392.191 435.2C390.857 435.2 389.657 435.067 388.591 434.8V435.6C390.191 437.467 390.991 439.6 390.991 442C390.991 444.667 390.191 447.067 388.591 449.2C388.857 450 388.991 450.933 388.991 452C388.991 452.8 388.991 453.6 388.991 454.4C388.991 458.667 388.457 463.467 387.391 468.8C386.591 473.867 385.924 478.4 385.391 482.4H383.391L384.191 482.8L384.591 489.6C383.524 489.333 382.857 489.867 382.591 491.2C382.591 492.533 383.124 493.2 384.191 493.2L380.591 502.4L382.191 506.4L374.991 532.8L377.391 533.6L375.791 543.2L372.591 545.6L374.191 552.8L371.791 553.6L372.591 554.4L370.991 567.2C369.124 567.2 368.191 567.867 368.191 569.2C368.191 570 368.857 571.067 370.191 572.4L366.191 588.4L363.791 589.2L366.191 591.6C363.524 594.267 361.791 598 360.991 602.8C360.457 607.6 360.057 611.867 359.791 615.6H358.991C357.924 618.267 356.324 622 354.191 626.8C352.057 631.6 349.791 636.8 347.391 642.4C345.257 647.733 343.391 652.8 341.791 657.6C340.191 662.133 339.257 665.6 338.991 668L334.991 670L335.791 672L330.991 680.4L328.591 679.6C327.524 680.667 326.857 682 326.591 683.6C326.591 685.2 326.324 686.667 325.791 688H325.391C325.391 687.733 325.257 686.8 324.991 685.2C324.724 683.6 324.324 683.067 323.791 683.6C321.391 686.533 320.324 689.6 320.591 692.8L315.391 696.8L316.591 697.6L310.191 703.6H308.191L303.791 706.8C304.324 705.733 303.524 705.467 301.391 706C299.257 706.8 296.724 707.6 293.791 708.4C290.857 709.467 288.191 710.133 285.791 710.4L284.991 712ZM360.591 430L363.391 430.8L363.791 429.2C363.791 428.133 363.124 428 361.791 428.8C360.724 429.6 360.324 430 360.591 430ZM500.588 643.6C498.721 643.867 496.454 643.067 493.788 641.2C491.121 639.067 489.254 637.333 488.188 636L488.588 632.4C488.321 632.4 488.054 632.533 487.788 632.8C487.521 633.067 487.254 633.2 486.988 633.2L488.588 623.2C489.121 623.2 489.254 622.533 488.988 621.2C488.988 619.867 488.988 619.067 488.988 618.8L488.588 618.4L488.988 611.6H490.588L488.588 609.6L489.388 603.6L490.188 603.2L489.388 602L490.188 597.6L491.788 596.8C491.788 596.267 491.521 595.733 490.988 595.2C490.721 594.4 490.588 593.733 490.588 593.2C490.588 592.133 491.521 590.667 493.388 588.8L491.788 588L494.188 586L492.188 585.2C493.521 584.133 493.788 583.2 492.988 582.4C492.454 581.333 492.588 580.267 493.388 579.2L496.188 575.2L494.188 573.2L494.588 570.8C495.921 570.8 496.588 570.4 496.588 569.6C496.588 569.067 496.454 568.4 496.188 567.6C495.921 566.8 495.788 566 495.788 565.2H496.188L496.588 566L497.788 558L498.588 557.6V551.6H500.588L499.388 547.2L498.987 547.6L490.588 561.2L488.188 561.6L484.988 566L486.988 566.8L485.788 568.8H482.588C483.121 569.867 483.388 570.667 483.388 571.2C483.388 572.267 482.721 573.2 481.388 574C480.054 574.533 479.121 574.933 478.588 575.2L479.388 577.6L476.188 582.8L474.188 582C474.188 582 474.054 582.267 473.788 582.8C473.788 583.333 473.521 583.6 472.988 583.6L470.988 582.8L470.188 586L472.188 586.4C471.121 587.467 470.321 588.4 469.788 589.2C469.254 590 467.921 590.4 465.788 590.4C465.521 591.2 465.788 592 466.588 592.8C464.454 595.733 462.054 598.667 459.388 601.6C456.988 604.533 454.321 607.067 451.388 609.2H450.188L446.988 612.4L445.388 611.6L444.588 614.4L436.988 617.6L436.188 619.6L433.388 618.8L431.788 621.2H430.188C423.788 621.2 418.454 619.467 414.188 616C413.388 614.4 412.988 612.533 412.988 610.4C412.454 610.4 412.054 610.667 411.788 611.2C411.521 611.467 411.254 611.733 410.988 612L408.588 602L409.788 599.6L408.988 598.8L409.387 595.6H410.588L413.788 581.2C414.054 581.2 414.188 581.333 414.188 581.6C414.454 581.867 414.721 582 414.988 582C415.521 582 415.788 581.6 415.788 580.8C415.788 580 415.654 579.467 415.388 579.2L414.588 579.6C415.121 575.6 417.121 572.667 420.588 570.8C420.054 570.267 419.788 569.6 419.788 568.8C419.788 568 419.921 567.333 420.188 566.8C420.721 566 421.121 565.2 421.388 564.4L422.587 564.8V564.4L422.188 563.6L423.788 562.8C424.054 562.8 423.921 562.4 423.388 561.6C423.121 560.8 423.521 560.933 424.588 562V559.2H426.988C427.788 558.133 428.454 556.933 428.988 555.6C429.521 554.267 430.054 552.933 430.588 551.6H434.588L433.388 548.8L435.388 546.4L437.788 547.2L438.988 542L445.388 537.2L443.388 536L445.788 535.2L446.188 537.6C446.188 534.667 447.388 532.533 449.788 531.2H450.188L450.588 533.2L450.988 532.4L450.588 530.4L454.987 527.2L455.388 528.8C455.654 526.133 457.121 524.133 459.788 522.8C462.454 521.2 465.254 519.733 468.188 518.4C471.121 517.067 472.721 515.6 472.988 514L476.188 514.4C476.454 514.133 476.588 513.733 476.588 513.2C476.854 512.4 476.721 512 476.188 512C478.854 511.733 481.921 510.8 485.388 509.2H489.388L487.388 508L487.788 507.6C492.588 506.267 497.521 505.6 502.588 505.6C506.054 505.6 509.254 506.667 512.188 508.8L520.188 512C520.454 512.267 520.188 512.4 519.388 512.4C518.854 512.4 518.588 512.667 518.588 513.2C518.588 513.467 518.988 513.867 519.788 514.4C520.588 514.667 521.254 514.8 521.788 514.8L522.188 513.6C522.454 513.6 522.588 514.133 522.588 515.2C522.854 516 523.121 516.133 523.388 515.6L526.588 518.8H524.988L524.188 530.4H522.588L521.788 532.4L522.988 535.2C522.988 535.467 522.854 536 522.588 536.8C522.321 537.333 522.188 537.2 522.188 536.4V535.6L520.988 536C521.254 536.533 521.388 537.333 521.388 538.4C521.388 539.2 521.254 540.133 520.988 541.2C520.988 542 520.854 542.933 520.588 544C519.521 544 518.854 544.133 518.588 544.4L517.388 547.6C517.121 548.667 517.254 549.333 517.788 549.6C518.321 549.6 518.588 549.733 518.588 550L517.788 551.6C517.788 552.667 517.788 553.733 517.788 554.8C518.054 555.867 518.054 557.067 517.788 558.4H514.588L510.188 558.8C511.254 560.4 512.454 561.733 513.787 562.8C515.121 563.6 515.788 564 515.788 564C516.321 564.533 516.454 565.067 516.188 565.6C515.654 566.933 515.121 568.267 514.588 569.6C514.054 570.933 513.521 572.267 512.988 573.6L514.188 574C514.454 574.267 514.321 574.4 513.787 574.4C513.521 574.4 513.521 574.533 513.787 574.8L514.188 575.2C514.454 575.467 514.588 575.867 514.588 576.4C514.588 577.467 514.188 578.533 513.388 579.6C512.588 580.667 511.921 581.867 511.388 583.2H512.588C512.588 585.333 512.454 588.267 512.188 592C511.921 595.467 511.121 598 509.788 599.6H509.388V597.6H507.388L510.188 601.6C509.121 605.067 508.454 608.8 508.188 612.8C507.921 616.533 507.521 620.267 506.988 624L509.788 627.6H510.188V624.8L512.588 623.2H514.588L515.388 626L516.188 621.2C516.188 620.933 516.188 620.8 516.188 620.8C516.454 620.8 516.588 620.8 516.588 620.8H517.388C517.921 618.933 518.054 617.6 517.788 616.8C519.388 614.667 521.254 611.867 523.388 608.4C525.788 604.667 528.054 601.067 530.188 597.6C532.321 593.867 533.654 590.933 534.188 588.8C534.721 588.8 535.121 589.067 535.388 589.6C535.654 590.133 535.921 590.4 536.188 590.4C536.454 590.4 536.454 589.867 536.188 588.8C536.188 587.467 535.921 586.933 535.388 587.2C536.188 586.133 536.721 584.933 536.988 583.6C537.254 582 537.921 581.2 538.988 581.2C540.321 581.2 540.988 581.6 540.988 582.4C540.988 582.933 540.854 583.6 540.588 584.4C540.321 584.933 540.188 585.467 540.188 586L539.788 594.4L537.388 596.4L538.188 596.8H538.588L537.388 597.6L538.588 598.8H537.388C537.388 600.133 537.121 601.467 536.588 602.8C536.321 604.133 535.921 605.467 535.388 606.8L532.988 607.6L533.788 609.2L531.788 612L529.388 612.4L524.188 625.6L521.788 625.2L522.188 628.4L511.788 640.4L509.788 640L509.388 642.4L507.788 643.6H500.588ZM428.188 607.6H428.988L437.788 603.2C438.321 603.733 438.454 604 438.188 604C437.921 604 437.788 604 437.788 604C437.788 604.8 438.054 605.467 438.588 606C439.121 606.267 439.521 606.4 439.788 606.4L438.988 602.4C439.521 600.8 440.588 600.4 442.188 601.2L441.788 602L444.588 600.8H442.588C442.321 600 442.588 599.6 443.388 599.6L449.788 598C450.054 597.733 449.654 597.6 448.588 597.6C447.521 597.333 446.988 597.067 446.988 596.8L449.388 595.6C451.521 594.533 453.254 593.333 454.588 592C455.921 590.667 456.588 590 456.588 590C457.121 590.8 457.921 591.2 458.988 591.2H459.388V586L462.188 583.2L463.788 583.6L463.388 581.6L466.588 580.4C467.121 578 468.321 576.267 470.188 575.2C472.054 573.867 473.521 572.4 474.588 570.8H473.788C474.321 569.467 475.388 568.667 476.988 568.4C478.588 567.867 479.521 566.8 479.788 565.2L478.988 563.6L483.388 560L482.588 559.6C483.121 559.067 483.388 558.533 483.388 558C483.654 557.2 484.321 556.933 485.388 557.2L487.388 557.6V553.6L488.988 550.8H492.188C492.721 549.2 492.188 548.4 490.588 548.4L496.188 540.8L498.588 542V541.2L496.188 540.4L497.788 538L499.388 537.6L499.788 537.2C498.988 537.2 498.721 536.933 498.987 536.4C499.254 535.6 499.788 535.333 500.588 535.6L500.988 532.4L502.988 531.6H502.188L502.988 529.6H505.788L504.988 523.6L505.788 522.8L504.588 521.6C504.054 523.467 502.721 524.533 500.588 524.8C498.454 525.067 496.588 525.2 494.988 525.2C495.521 525.467 495.654 526 495.388 526.8C495.121 527.333 494.721 527.467 494.188 527.2L491.788 526H490.588L491.788 528.8L488.188 528L488.988 529.6H486.988V531.2L483.388 533.6C483.121 533.6 481.921 533.467 479.788 533.2C477.921 532.933 477.521 533.333 478.588 534.4H479.388C479.388 535.733 478.988 536.267 478.188 536C477.388 535.733 476.854 535.6 476.588 535.6L477.388 536C472.321 538.4 467.788 541.867 463.788 546.4C464.321 546.667 464.188 547.067 463.388 547.6C462.854 548.133 462.321 548 461.788 547.2V549.6L460.988 548.8C460.988 550.133 460.188 551.333 458.588 552.4C456.988 553.2 455.521 553.867 454.188 554.4C453.388 556 452.454 557.6 451.388 559.2C450.321 560.8 449.121 562 447.788 562.8L446.988 562.4L442.588 565.2V566.4C442.588 569.067 441.788 571.467 440.188 573.6C438.854 575.467 437.388 577.467 435.788 579.6L434.588 578.4L433.388 583.6H430.588V588.8H426.988C426.721 588.8 426.721 589.067 426.988 589.6C427.254 590.133 427.654 590.533 428.188 590.8C427.921 592.933 427.254 595.067 426.188 597.2C425.388 599.067 424.854 601.067 424.588 603.2H426.588C426.054 605.333 426.854 606.267 428.988 606L428.188 607.6ZM428.988 591.2C428.988 591.467 428.721 591.333 428.188 590.8V590.4L428.988 590.8V591.2ZM566.05 638.8C565.783 637.2 565.383 636.4 564.85 636.4C564.583 636.4 564.317 636.667 564.05 637.2C563.783 637.467 563.383 637.6 562.85 637.6C562.317 637.6 561.65 636.533 560.85 634.4L553.25 631.2L554.45 628.4L550.85 628L550.45 624.4H549.65L548.85 621.6L550.85 618.4L549.65 617.6L552.45 615.6L550.85 614C550.85 612.667 551.25 610.533 552.05 607.6C552.85 604.667 553.783 602.8 554.85 602C554.583 601.467 554.317 600.533 554.05 599.2C554.05 597.6 554.583 596.933 555.65 597.2L554.85 591.6C555.383 590.533 556.05 589.2 556.85 587.6C557.917 586 557.65 585.867 556.05 587.2L558.05 575.2L558.85 574H560.45C560.183 573.467 559.917 572.533 559.65 571.2C559.65 569.6 559.65 567.867 559.65 566C559.65 560.667 559.917 554.8 560.45 548.4C561.25 541.733 562.05 537.2 562.85 534.8C562.317 533.2 562.05 531.2 562.05 528.8C562.05 526.133 562.717 524.667 564.05 524.4L564.85 504.4C564.85 504.4 564.85 504.133 564.85 503.6C565.117 503.067 565.25 502.4 565.25 501.6C565.25 499.733 564.85 497.6 564.05 495.2C564.85 494.933 565.383 494.533 565.65 494C566.183 493.2 565.783 492.8 564.45 492.8L567.25 490.4L564.45 486.8L565.25 478.8C565.517 479.067 565.917 479.2 566.45 479.2C567.517 479.2 567.917 478.533 567.65 477.2C567.383 475.6 566.583 475.2 565.25 476L566.05 468H568.45V467.6C568.45 467.067 568.183 466.133 567.65 464.8C567.383 463.2 566.983 462.267 566.45 462C567.25 462.267 567.65 460.267 567.65 456C567.65 454.133 567.517 452 567.25 449.6C567.25 447.2 567.25 444.933 567.25 442.8C567.25 439.6 567.517 436.667 568.05 434C568.583 431.333 569.383 429.733 570.45 429.2C569.383 424.933 569.117 421.2 569.65 418L572.85 418.4L569.65 415.6L572.85 414.4L570.45 411.2V410.8C570.45 410.267 570.717 409.6 571.25 408.8C571.783 408 572.317 407.867 572.85 408.4C572.317 406.267 572.05 404.533 572.05 403.2C572.05 401.333 572.183 399.6 572.45 398C572.717 396.4 572.85 394.8 572.85 393.2L574.45 391.6L573.65 388L575.65 387.2C576.45 383.467 577.117 379.6 577.65 375.6C578.183 371.333 579.65 367.733 582.05 364.8H585.65L586.85 366.8L591.25 367.2C590.983 368 591.25 368.667 592.05 369.2C593.117 369.467 593.65 369.333 593.65 368.8C595.517 371.467 596.45 373.067 596.45 373.6C596.717 374.133 597.517 374.4 598.85 374.4C599.117 374.4 599.517 374.933 600.05 376C600.583 377.067 600.583 377.6 600.05 377.6C601.65 378.133 602.583 379.467 602.85 381.6C603.383 383.467 603.65 385.067 603.65 386.4H605.25L604.45 390.8H606.05L605.65 395.6L605.25 395.2C604.717 395.2 604.317 396 604.05 397.6C604.05 399.2 604.45 399.733 605.25 399.2L604.45 407.6H602.85C603.117 410.533 602.85 413.6 602.05 416.8C601.25 420 600.85 423.2 600.85 426.4C600.317 425.867 599.65 426 598.85 426.8C599.65 428.4 600.05 429.867 600.05 431.2C600.05 433.6 599.517 436 598.45 438.4C597.383 440.533 597.117 442.8 597.65 445.2L595.25 445.6L596.05 448.8L594.45 449.6C594.983 451.733 595.25 453.6 595.25 455.2C595.25 458.4 594.85 461.6 594.05 464.8C593.25 468 592.183 470.533 590.85 472.4L591.25 473.2L588.85 474.4L592.05 476C591.517 477.067 590.583 478.533 589.25 480.4C587.917 482.267 588.317 483.067 590.45 482.8C589.917 486.267 588.85 488.8 587.25 490.4L588.85 490.8L587.25 494L588.05 498L584.45 499.2L587.25 502.8L582.85 506.8C583.65 507.6 584.05 509.333 584.05 512C584.05 515.2 583.517 519.333 582.45 524.4C581.65 529.2 580.717 533.733 579.65 538C578.583 542.267 577.65 545.067 576.85 546.4L578.45 545.6L573.65 572.4L572.45 572.8V582.4H570.05C570.05 582.667 570.317 582.933 570.85 583.2C571.65 583.467 572.05 583.733 572.05 584V586L571.25 585.2L570.05 584.8C570.05 585.067 570.05 585.467 570.05 586C570.317 586.267 570.45 586.667 570.45 587.2C570.45 588.8 570.183 590.4 569.65 592C569.383 593.333 569.117 594.8 568.85 596.4L569.65 595.6L569.25 598.8L570.05 598.4L571.25 594.4C571.783 594.933 572.317 595.2 572.85 595.2C573.65 595.2 574.183 594.8 574.45 594C574.983 592.933 574.717 591.867 573.65 590.8L577.65 588C577.117 587.467 576.85 586.8 576.85 586C576.85 584.933 577.517 584.4 578.85 584.4C580.183 584.133 581.25 583.733 582.05 583.2C583.117 582.667 582.717 581.467 580.85 579.6L584.05 576C584.583 576.533 585.517 575.467 586.85 572.8C588.45 570.133 589.783 568 590.85 566.4L591.65 567.6C592.183 567.6 592.583 566.8 592.85 565.2C593.117 563.6 593.383 562.667 593.65 562.4L594.85 560C595.383 560 595.917 560.267 596.45 560.8C596.983 561.333 597.383 561.6 597.65 561.6C597.917 561.6 597.917 561.067 597.65 560C597.65 558.933 597.117 558.533 596.05 558.8L599.25 556.8C598.983 556 599.117 555.2 599.65 554.4C600.183 553.6 600.45 553.867 600.45 555.2L603.25 552.4L602.85 551.2C604.183 549.067 605.917 547.2 608.05 545.6C610.183 543.733 612.183 541.867 614.05 540C613.517 539.2 613.517 539.067 614.05 539.6C614.85 539.867 615.383 540 615.65 540L615.25 536.4L619.25 536.8L620.05 535.6L619.65 532.4C623.117 530.533 625.917 528.267 628.05 525.6C630.183 522.667 633.117 520.933 636.85 520.4C637.117 520.133 637.25 519.467 637.25 518.4L640.45 519.2C640.45 518.933 640.717 518.667 641.25 518.4C641.783 517.867 642.05 517.467 642.05 517.2L645.65 516.4C645.65 515.867 645.517 515.467 645.25 515.2C644.983 514.933 644.983 514.667 645.25 514.4L656.85 514V515.6L657.25 515.2C660.183 516.533 663.117 518 666.05 519.6L667.25 526.8L670.05 525.6C671.117 526.133 671.117 526.933 670.05 528C669.25 529.067 668.583 529.2 668.05 528.4L670.05 532.4C670.583 532.667 671.117 532.8 671.65 532.8C672.183 532.8 672.317 533.067 672.05 533.6L670.05 535.6L672.05 537.2L668.45 542.8L671.65 544C671.917 544 671.65 544.267 670.85 544.8C670.05 545.067 669.65 545.333 669.65 545.6C670.45 546.933 670.317 549.067 669.25 552C668.183 554.933 666.717 557.733 664.85 560.4C663.25 562.8 661.917 564.267 660.85 564.8C660.85 565.067 660.717 565.2 660.45 565.2C660.183 565.733 659.65 566.4 658.85 567.2C658.317 568 658.05 568.667 658.05 569.2L659.25 572.4L656.85 576.4H653.65C653.383 576.667 653.517 576.8 654.05 576.8C654.583 576.8 654.983 577.067 655.25 577.6L651.25 583.2L648.85 582.8L645.65 588.4L647.25 588C646.45 589.6 645.383 590.933 644.05 592C642.717 593.067 641.383 594 640.05 594.8V595.2C640.05 596 639.783 596.8 639.25 597.6C638.717 598.4 638.183 598.533 637.65 598L635.65 602H634.85L631.65 604.8L631.25 606.8L625.65 608.4L624.45 612.4C623.383 611.333 622.983 611.467 623.25 612.8L618.05 616.8C617.517 616.533 617.117 616.4 616.85 616.4C616.583 616.133 616.317 616 616.05 616C615.517 616 615.783 617.067 616.85 619.2L610.05 624L607.25 623.2L604.45 627.2H602.05C602.05 627.2 602.45 627.333 603.25 627.6C604.05 627.6 604.05 627.867 603.25 628.4C602.983 628.667 602.45 628.533 601.65 628C601.117 627.2 600.583 626.933 600.05 627.2V629.6L596.05 630.8L598.05 631.6C594.583 631.867 591.25 632.667 588.05 634C585.117 635.067 582.05 636 578.85 636.8L578.45 634.4C578.183 633.867 578.05 634.267 578.05 635.6C578.05 636.933 577.917 637.867 577.65 638.4L566.05 638.8ZM565.65 624C566.183 624.533 566.717 625.067 567.25 625.6C567.783 626.133 568.183 626.667 568.45 627.2L568.85 625.6H570.45C573.383 625.6 575.517 624.8 576.85 623.2L576.05 622.4C577.65 622.667 579.25 622.533 580.85 622L582.45 618.8C584.583 617.2 586.85 616.933 589.25 618C589.25 616.933 589.783 616.133 590.85 615.6L590.05 614.8C591.383 613.733 592.983 613.067 594.85 612.8C596.983 612.267 598.45 611.2 599.25 609.6L598.85 609.2C601.783 607.867 605.383 605.6 609.65 602.4C613.917 598.933 617.383 595.867 620.05 593.2L619.65 591.6C620.983 591.6 621.917 591.867 622.45 592.4V592C622.45 590.4 623.25 588.533 624.85 586.4C626.717 584.267 628.317 583.067 629.65 582.8L630.45 583.6L631.25 583.2C630.983 582.933 630.85 582.4 630.85 581.6C630.85 580.8 630.983 580.133 631.25 579.6C631.783 578.8 632.183 578.133 632.45 577.6H633.65V578.8C633.65 581.2 634.317 581.467 635.65 579.6C636.983 577.467 638.45 574.667 640.05 571.2C641.65 567.733 642.717 565.067 643.25 563.2L642.45 561.2L644.45 557.2L646.85 556.8L644.45 556C646.583 554.133 647.917 550.8 648.45 546C649.25 541.2 649.65 537.467 649.65 534.8V530.4C648.583 530.133 647.917 529.733 647.65 529.2C647.65 528.667 647.383 528 646.85 527.2C644.183 528.267 642.05 528.933 640.45 529.2C639.117 529.467 637.383 530.667 635.25 532.8L631.65 532.4L632.45 535.2L629.25 536.4L628.45 538.4L625.65 538.8C625.65 541.467 624.583 542.933 622.45 543.2V544.8C621.117 544.8 620.05 545.333 619.25 546.4C619.517 546.667 619.65 546.933 619.65 547.2C619.65 548 619.25 548.8 618.45 549.6C617.65 550.133 616.983 550.667 616.45 551.2L615.65 549.2C615.117 549.733 614.45 550.533 613.65 551.6C613.117 552.4 613.117 553.333 613.65 554.4L610.05 559.2L605.65 561.2L606.05 564C603.917 565.067 602.583 566.267 602.05 567.6C601.517 568.933 600.983 570.133 600.45 571.2C599.917 572.267 598.183 573.2 595.25 574L596.05 574.8H597.65C596.583 575.867 595.517 576.8 594.45 577.6C593.65 578.4 592.45 578.933 590.85 579.2L592.05 582L589.65 582.4L590.85 584.4C589.25 585.467 587.517 587.467 585.65 590.4C584.05 593.067 582.983 595.333 582.45 597.2H581.25V594.8C580.983 595.867 580.583 596.667 580.05 597.2C579.783 597.467 579.383 597.867 578.85 598.4L579.65 600L578.85 602.4L577.65 602L578.45 602.8C577.117 604.667 575.783 606.8 574.45 609.2C573.383 611.333 571.517 612.533 568.85 612.8V614C568.85 616.133 568.317 617.867 567.25 619.2L566.05 620.8L568.05 621.2C567.783 621.467 567.383 621.867 566.85 622.4C566.317 622.933 565.917 623.467 565.65 624ZM660.85 564.8C660.85 564.8 660.717 564.933 660.45 565.2L660.85 564.8ZM720.025 529.6C717.625 529.6 714.958 528.667 712.025 526.8L710.825 526.4H710.025C709.758 526.133 709.492 526 709.225 526C709.225 525.467 709.358 525.067 709.625 524.8H707.625L708.025 520C709.625 520 710.558 519.6 710.825 518.8L710.025 518.4H711.225V517.2C711.225 515.6 711.625 514.4 712.425 513.6C713.225 512.533 714.158 511.467 715.225 510.4C715.758 510.667 716.292 510.8 716.825 510.8C717.625 510.8 718.158 511.067 718.425 511.6C718.158 510 718.158 508.533 718.425 507.2L719.625 507.6C720.158 505.467 721.358 504.133 723.225 503.6C725.358 502.8 727.225 502 728.825 501.2L729.225 503.6L730.025 503.2V502H732.025C732.558 500.4 733.492 499.6 734.825 499.6L735.225 501.2C736.292 500.133 737.492 499.6 738.825 499.6C740.958 500.4 741.358 501.733 740.025 503.6C739.492 503.867 738.958 504.667 738.425 506C737.892 504.667 737.225 503.867 736.425 503.6L736.025 506.4L735.625 504.8H735.225L736.025 508C735.225 508.267 734.692 508.667 734.425 509.2C734.158 509.733 733.758 510.267 733.225 510.8C732.692 511.333 732.158 511.467 731.625 511.2C731.092 510.933 730.558 511.2 730.025 512C730.558 511.733 731.358 511.733 732.425 512C731.625 512 731.092 512.133 730.825 512.4L732.425 512.8C731.358 513.867 730.558 515.2 730.025 516.8C729.492 518.133 728.958 519.467 728.425 520.8H726.425V523.2L727.625 523.6C726.825 524.4 725.892 524.8 724.825 524.8L725.225 526.8C724.958 527.333 724.292 528 723.225 528.8C722.425 529.333 721.358 529.6 720.025 529.6ZM695.225 650.4C693.892 650.4 692.958 649.733 692.425 648.4L690.825 649.6L689.225 648.4L690.825 646.4L690.025 644.8H689.225V646.4L687.225 646L686.425 643.6C686.425 643.6 686.558 643.6 686.825 643.6C687.358 643.333 687.492 643.067 687.225 642.8H685.225C685.225 642.267 685.225 641.733 685.225 641.2C685.492 640.4 685.892 639.867 686.425 639.6C685.092 638.533 684.425 636 684.425 632C684.425 627.733 684.425 625.067 684.425 624L685.225 620.4H686.825L685.225 614C685.225 613.733 685.625 613.867 686.425 614.4C687.225 614.667 687.625 614.8 687.625 614.8V612.8C687.358 612.267 686.825 611.733 686.025 611.2C685.492 610.4 685.225 609.6 685.225 608.8L685.625 608.4C686.692 606 687.358 603.467 687.625 600.8C688.158 598.133 688.692 595.6 689.225 593.2L688.025 592.4L688.425 588.4C688.692 587.867 688.958 587.867 689.225 588.4C689.492 588.667 689.625 588.8 689.625 588.8H691.225C690.958 588.267 690.558 587.733 690.025 587.2C689.758 586.4 689.625 585.467 689.625 584.4L690.825 583.2C690.292 582.933 690.025 582.267 690.025 581.2C690.025 580.133 690.158 579.2 690.425 578.4C690.692 577.333 690.958 576.667 691.225 576.4L690.825 575.2C692.158 574.667 692.692 573.467 692.425 571.6C692.425 569.467 692.558 567.6 692.825 566C693.358 564.133 695.092 563.333 698.025 563.6C697.758 563.067 697.492 562.533 697.225 562C696.958 561.467 696.558 561.067 696.025 560.8H695.225V558L698.825 554L698.025 552.4L699.225 551.6V551.2C699.225 549.867 699.758 548.933 700.825 548.4C701.892 547.6 702.958 547.067 704.025 546.8L703.625 545.6H705.225L705.625 547.2L705.225 547.6H706.425C706.425 546.533 706.425 546 706.425 546C706.425 546 707.358 545.867 709.225 545.6L710.425 548.8C714.158 549.867 716.558 551.467 717.625 553.6C718.958 555.733 720.158 558.4 721.225 561.6L722.425 560.8V561.6C722.425 563.733 721.492 565.333 719.625 566.4L719.225 566C719.492 566.8 719.625 567.467 719.625 568C719.625 568.533 718.958 569.067 717.625 569.6C717.358 571.2 716.958 572.933 716.425 574.8C715.892 576.667 715.358 578.4 714.825 580C714.825 579.467 714.558 579.467 714.025 580C713.492 580.267 713.492 580.667 714.025 581.2L712.425 582H713.625C713.092 584.4 712.158 586.8 710.825 589.2C709.492 591.6 708.958 594 709.225 596.4H706.825L707.225 599.2L708.025 598.8C707.758 599.6 707.492 600.4 707.225 601.2C706.958 601.733 706.825 602.533 706.825 603.6H705.625L706.825 604.4H706.425L706.825 605.2L705.625 608.8H704.025L704.825 612C704.292 612.533 703.492 612.4 702.425 611.6C702.425 613.2 703.092 614.533 704.425 615.6L702.825 622.4H701.225L702.025 623.6L702.825 622.8L702.025 632V632.4H704.825L705.225 634.8C706.558 634.267 708.025 633.867 709.625 633.6C711.225 633.333 712.692 632.933 714.025 632.4L714.825 630.8L717.225 631.2V629.6L716.425 629.2L719.225 627.2V627.6L719.625 626.4L720.825 626.8C720.825 626 721.092 625.467 721.625 625.2C722.158 624.667 722.558 623.867 722.825 622.8L724.425 624L728.025 620C728.025 620 727.625 619.733 726.825 619.2L727.625 617.2L730.025 616.4C729.758 616.133 729.625 615.733 729.625 615.2C729.625 614.667 729.892 614.267 730.425 614C731.225 613.467 731.758 612.8 732.025 612C731.758 612 731.625 611.867 731.625 611.6C731.625 611.067 731.758 610.8 732.025 610.8L734.825 610.4C735.092 609.333 735.225 608.4 735.225 607.6C735.225 606.533 735.358 605.467 735.625 604.4C735.892 604.133 736.025 604.267 736.025 604.8C736.292 605.067 736.425 605.333 736.425 605.6C736.958 606.133 737.492 606.133 738.025 605.6V604.4L739.225 604L736.825 603.2L738.825 602.8H738.025V601.2C739.358 600.4 740.292 599.067 740.825 597.2C741.625 595.067 742.158 593.333 742.425 592L743.625 592.4V590L744.825 589.6C744.025 589.6 743.892 589.333 744.425 588.8H746.025C745.758 585.867 746.425 583.467 748.025 581.6C749.625 579.467 750.692 577.2 751.225 574.8H752.825V573.2H756.425C756.425 574.8 756.158 575.6 755.625 575.6C755.358 575.6 754.958 576.133 754.425 577.2L756.025 581.2L755.225 582.4L753.625 581.6L754.425 584L753.225 583.2L753.625 586.4L752.825 586C752.558 587.067 751.892 589.333 750.825 592.8C750.025 596 748.958 598 747.625 598.8L746.025 598.4C746.025 598.933 746.158 599.467 746.425 600C746.692 600.533 746.958 601.067 747.225 601.6L745.225 605.6L743.625 604.8C743.892 607.2 743.092 609.867 741.225 612.8C739.358 615.467 737.758 617.867 736.425 620H734.025C734.025 621.067 733.892 622 733.625 622.8C733.358 623.6 733.225 624.667 733.225 626L730.425 627.2L732.025 627.6L729.225 628.8V629.2C729.225 630.267 728.825 631.333 728.025 632.4C727.492 633.2 727.092 633.867 726.825 634.4L724.425 634V636.8H722.425C722.425 638.133 721.892 639.2 720.825 640C720.825 639.733 720.558 639.6 720.025 639.6C719.758 639.333 719.492 639.333 719.225 639.6C719.758 640.133 719.758 640.8 719.225 641.6C718.692 642.133 718.158 642.533 717.625 642.8L716.425 642.4V644C714.025 646.4 710.692 647.867 706.425 648.4L706.025 649.2L704.025 650V648.4C702.425 648.667 701.225 649.067 700.425 649.6C699.892 650.133 698.558 650.4 696.425 650.4L696.025 649.2H695.625L695.225 650.4ZM704.025 604.8L705.625 605.6L706.425 604.4L704.025 604.8Z" fill="#52341C"/>
<defs>
<linearGradient id="paint0_linear_910_24730" x1="232.233" y1="1010.07" x2="749.682" y2="-99.6031" gradientUnits="userSpaceOnUse">
<stop stop-color="#FBC8B3"/>
<stop offset="0.4609" stop-color="#FBC7B2"/>
<stop offset="0.6322" stop-color="#EAA0A1"/>
<stop offset="0.7737" stop-color="#EAA0A1"/>
<stop offset="0.8073" stop-color="#FBC7B2"/>
</linearGradient>
</defs>
</svg>
